<?xml version="1.0" encoding="UTF-8" standalone="no"?>
<!-- Created with Inkscape (http://www.inkscape.org/) -->

<svg
   width="92.36895mm"
   height="34.549076mm"
   viewBox="0 0 92.36895 34.549076"
   version="1.1"
   id="svg1"
   sodipodi:docname="u4punkt1.svg"
   inkscape:export-filename="u4punkt1.svg"
   inkscape:export-xdpi="96"
   inkscape:export-ydpi="96"
   xmlns:inkscape="http://www.inkscape.org/namespaces/inkscape"
   xmlns:sodipodi="http://sodipodi.sourceforge.net/DTD/sodipodi-0.dtd"
   xmlns="http://www.w3.org/2000/svg"
   xmlns:svg="http://www.w3.org/2000/svg">
  <sodipodi:namedview
     id="namedview1"
     pagecolor="#ffffff"
     bordercolor="#000000"
     borderopacity="0.25"
     inkscape:showpageshadow="2"
     inkscape:pageopacity="0.0"
     inkscape:pagecheckerboard="0"
     inkscape:deskcolor="#d1d1d1"
     inkscape:document-units="mm">
    <inkscape:page
       x="0"
       y="2.8276187e-20"
       width="92.36895"
       height="34.549072"
       id="page2"
       margin="0"
       bleed="0" />
  </sodipodi:namedview>
  <defs
     id="defs1" />
  <g
     id="layer1"
     transform="translate(-86.646923,-135.01182)">
    <circle
       id="path4944-4-8-5-7-8"
       style="fill:#ffffff;fill-opacity:1;stroke:#000000;stroke-width:4.91884;stroke-linejoin:round;stroke-miterlimit:4;stroke-dasharray:none;stroke-opacity:1"
       cx="-161.79994"
       cy="152.22775"
       r="14.756509"
       transform="scale(-1,1)" />
    <circle
       style="fill:#ff0000;fill-opacity:0.603846;stroke:none;stroke-width:0.949846"
       id="path4946-4-4-7-0-7"
       cx="-161.64746"
       cy="-152.45694"
       transform="scale(-1)"
       r="7.3782544" />
    <rect
       ry="6.5317245"
       y="135.07515"
       x="-140.83881"
       height="34.485748"
       width="54.191883"
       id="rect6974-5-2-0"
       style="display:inline;fill:#f0d722;fill-opacity:1;stroke:none;stroke-width:2.46326"
       rx="6.5317245"
       transform="scale(-1,1)" />
    <g
       style="font-style:normal;font-weight:normal;font-size:40px;line-height:125%;font-family:Sans;letter-spacing:0px;word-spacing:0px;display:inline;fill:#000000;fill-opacity:1;stroke:none"
       id="text6976-1-7-7"
       transform="matrix(2.4632675,0,0,2.4632675,-12278.648,-3614.0756)">
      <path
         d="m 5023.6851,1524.787 h 1.7343 v 4.6523 c 0,0.7383 0.021,1.2168 0.065,1.4356 0.074,0.3515 0.251,0.6338 0.5303,0.8467 0.2793,0.2128 0.6611,0.3193 1.1455,0.3193 0.4922,0 0.8632,-0.1006 1.1132,-0.3018 0.25,-0.2011 0.4004,-0.4482 0.4512,-0.7412 0.051,-0.2929 0.076,-0.7793 0.076,-1.459 v -4.7519 h 1.7344 v 4.5117 c 0,1.0313 -0.047,1.7598 -0.1407,2.1856 -0.094,0.4257 -0.2666,0.7851 -0.5185,1.0781 -0.252,0.2929 -0.5889,0.5263 -1.0108,0.7002 -0.4218,0.1738 -0.9726,0.2607 -1.6523,0.2607 -0.8203,0 -1.4424,-0.095 -1.8662,-0.2842 -0.4238,-0.1894 -0.7588,-0.4355 -1.0049,-0.7382 -0.2461,-0.3028 -0.4082,-0.6202 -0.4863,-0.9522 -0.1133,-0.4922 -0.1699,-1.2187 -0.1699,-2.1797 z"
         style="font-weight:bold;font-size:12px;-inkscape-font-specification:'Sans Bold';text-align:center;text-anchor:middle;fill:#000000"
         id="path5336" />
      <path
         d="m 5035.2339,1533.3768 v -1.7285 h -3.5156 v -1.4414 l 3.7265,-5.4551 h 1.3828 v 5.4492 h 1.0664 v 1.4473 h -1.0664 v 1.7285 z m 0,-3.1758 v -2.9355 l -1.9746,2.9355 z"
         style="font-weight:bold;font-size:12px;-inkscape-font-specification:'Sans Bold';text-align:center;text-anchor:middle;fill:#000000"
         id="path5338" />
    </g>
  </g>
</svg>
