<?xml version="1.0" encoding="UTF-8" standalone="no"?>
<!-- Created with Inkscape (http://www.inkscape.org/) -->

<svg
   width="92.304527mm"
   height="53.032963mm"
   viewBox="0 0 92.304527 53.032963"
   version="1.1"
   id="svg1"
   inkscape:export-filename="u5punkt1.svg"
   inkscape:export-xdpi="96"
   inkscape:export-ydpi="96"
   sodipodi:docname="u2punkt1.svg"
   inkscape:version="1.4 (86a8ad7, 2024-10-11)"
   xmlns:inkscape="http://www.inkscape.org/namespaces/inkscape"
   xmlns:sodipodi="http://sodipodi.sourceforge.net/DTD/sodipodi-0.dtd"
   xmlns="http://www.w3.org/2000/svg"
   xmlns:svg="http://www.w3.org/2000/svg">
  <sodipodi:namedview
     id="namedview1"
     pagecolor="#ffffff"
     bordercolor="#000000"
     borderopacity="0.25"
     inkscape:showpageshadow="2"
     inkscape:pageopacity="0.0"
     inkscape:pagecheckerboard="0"
     inkscape:deskcolor="#d1d1d1"
     inkscape:document-units="mm"
     showguides="true"
     inkscape:zoom="1.0664064"
     inkscape:cx="-135.03295"
     inkscape:cy="52.98168"
     inkscape:window-width="1920"
     inkscape:window-height="1057"
     inkscape:window-x="0"
     inkscape:window-y="0"
     inkscape:window-maximized="0"
     inkscape:current-layer="layer1">
    <sodipodi:guide
       position="16.521511,52.223736"
       orientation="0,-1"
       id="guide1"
       inkscape:locked="false" />
    <sodipodi:guide
       position="15.533741,20.036216"
       orientation="1,0"
       id="guide2"
       inkscape:locked="false" />
    <sodipodi:guide
       position="17.498751,34.773816"
       orientation="0,-1"
       id="guide3"
       inkscape:locked="false" />
    <inkscape:page
       x="0"
       y="0"
       width="92.304527"
       height="53.032963"
       id="page2"
       margin="0"
       bleed="0" />
  </sodipodi:namedview>
  <defs
     id="defs1" />
  <g
     inkscape:label="Ebene 1"
     inkscape:groupmode="layer"
     id="layer1"
     transform="translate(-86.646909,-135.01182)">
    <circle
       id="path4944-4-8-5-7-8"
       style="fill:#ffffff;fill-opacity:1;stroke:#000000;stroke-width:4.91884;stroke-linejoin:round;stroke-miterlimit:4;stroke-dasharray:none;stroke-opacity:1"
       cx="103.86285"
       cy="152.22775"
       r="14.756509" />
    <circle
       style="fill:#ff0000;fill-opacity:0.603846;stroke:none;stroke-width:0.949846"
       id="path4946-4-4-7-0-7"
       cx="104.01533"
       cy="-152.45694"
       transform="scale(1,-1)"
       r="7.3782544" />
    <rect
       ry="6.5215168"
       y="153.61293"
       x="124.84425"
       height="34.431854"
       width="54.107197"
       id="rect6974-7-9-0-2"
       style="fill:#007a5b;fill-opacity:1;stroke:none;stroke-width:2.45942"
       rx="6.5215168" />
    <g
       style="font-style:normal;font-weight:normal;font-size:40px;line-height:125%;font-family:Sans;letter-spacing:0px;word-spacing:0px;fill:#ffffff;fill-opacity:1;stroke:none"
       id="text6976-8-5-8-5"
       transform="matrix(2.4594181,0,0,2.4594181,-11362.452,-3974.5983)">
      <path
         d="m 4674.8159,1681.411 h 1.7344 v 4.6524 c 0,0.7382 0.021,1.2168 0.064,1.4355 0.074,0.3516 0.251,0.6338 0.5303,0.8467 0.2793,0.2129 0.6611,0.3193 1.1455,0.3193 0.4922,0 0.8633,-0.1006 1.1133,-0.3017 0.25,-0.2012 0.4004,-0.4483 0.4512,-0.7413 0.051,-0.2929 0.076,-0.7792 0.076,-1.4589 v -4.752 h 1.7343 v 4.5117 c 0,1.0313 -0.047,1.7598 -0.1406,2.1856 -0.094,0.4258 -0.2666,0.7851 -0.5186,1.0781 -0.2519,0.293 -0.5888,0.5264 -1.0107,0.7002 -0.4219,0.1738 -0.9727,0.2607 -1.6523,0.2607 -0.8204,0 -1.4424,-0.095 -1.8662,-0.2841 -0.4239,-0.1895 -0.7588,-0.4356 -1.0049,-0.7383 -0.2461,-0.3028 -0.4082,-0.6201 -0.4864,-0.9522 -0.1132,-0.4922 -0.1699,-1.2187 -0.1699,-2.1797 z"
         style="font-weight:bold;font-size:12px;-inkscape-font-specification:'Sans Bold';text-align:center;text-anchor:middle;fill:#ffffff"
         id="path4898-5" />
      <path
         d="m 4683.0776,1687.7216 1.5938,-0.1934 c 0.051,0.4063 0.1875,0.7168 0.4101,0.9316 0.2227,0.2149 0.4922,0.3223 0.8086,0.3223 0.3399,0 0.626,-0.1289 0.8584,-0.3867 0.2325,-0.2578 0.3487,-0.6055 0.3487,-1.043 0,-0.414 -0.1114,-0.7422 -0.334,-0.9844 -0.2227,-0.2421 -0.4942,-0.3632 -0.8145,-0.3632 -0.2109,0 -0.4629,0.041 -0.7558,0.123 l 0.1816,-1.3418 c 0.4453,0.012 0.7852,-0.085 1.0195,-0.29 0.2344,-0.2051 0.3516,-0.4776 0.3516,-0.8174 0,-0.2891 -0.086,-0.5195 -0.2578,-0.6914 -0.1719,-0.1719 -0.4004,-0.2578 -0.6856,-0.2578 -0.2812,0 -0.5214,0.098 -0.7207,0.2929 -0.1992,0.1954 -0.3203,0.4805 -0.3632,0.8555 l -1.5176,-0.2578 c 0.1055,-0.5195 0.2646,-0.9346 0.4775,-1.2451 0.2129,-0.3106 0.5098,-0.5547 0.8906,-0.7324 0.3809,-0.1778 0.8077,-0.2666 1.2803,-0.2666 0.8086,0 1.457,0.2578 1.9453,0.7734 0.4024,0.4219 0.6035,0.8984 0.6035,1.4297 0,0.7539 -0.4121,1.3555 -1.2363,1.8047 0.4922,0.1054 0.8858,0.3418 1.1807,0.709 0.2949,0.3671 0.4424,0.8105 0.4424,1.33 0,0.7539 -0.2754,1.3965 -0.8262,1.9278 -0.5508,0.5312 -1.2363,0.7968 -2.0566,0.7968 -0.7774,0 -1.4219,-0.2236 -1.9336,-0.6709 -0.5118,-0.4472 -0.8086,-1.0322 -0.8907,-1.7548 z"
         style="font-weight:bold;font-size:12px;-inkscape-font-specification:'Sans Bold';text-align:center;text-anchor:middle;fill:#ffffff"
         id="path4900-1" />
    </g>
    <rect
       rx="6.5351028"
       style="fill:#da421e;fill-opacity:1;stroke:none;stroke-width:2.46454"
       id="rect6915-2-01-0-4-5"
       width="54.219913"
       height="34.503582"
       x="124.83891"
       y="153.62619"
       ry="6.5351028" />
    <g
       style="font-style:normal;font-weight:normal;font-size:40px;line-height:125%;font-family:Sans;letter-spacing:0px;word-spacing:0px;fill:#ffffff;fill-opacity:1;stroke:none"
       id="text6911-6-2-9-1-9"
       transform="matrix(2.4645415,0,0,2.4645415,-11201.25,-2712.1171)">
      <path
         d="m 4599.5977,1165.5538 h 1.7343 v 4.6524 c 0,0.7383 0.021,1.2168 0.064,1.4355 0.074,0.3516 0.251,0.6338 0.5303,0.8467 0.2793,0.2129 0.6611,0.3193 1.1455,0.3193 0.4921,0 0.8632,-0.1005 1.1132,-0.3017 0.25,-0.2012 0.4004,-0.4483 0.4512,-0.7412 0.051,-0.293 0.076,-0.7793 0.076,-1.459 v -4.752 h 1.7344 v 4.5118 c 0,1.0312 -0.047,1.7597 -0.1407,2.1855 -0.094,0.4258 -0.2666,0.7852 -0.5185,1.0781 -0.252,0.293 -0.5889,0.5264 -1.0108,0.7002 -0.4218,0.1738 -0.9726,0.2608 -1.6523,0.2608 -0.8203,0 -1.4424,-0.095 -1.8662,-0.2842 -0.4238,-0.1895 -0.7588,-0.4356 -1.0049,-0.7383 -0.2461,-0.3027 -0.4082,-0.6201 -0.4863,-0.9521 -0.1133,-0.4922 -0.1699,-1.2188 -0.1699,-2.1797 z"
         style="font-weight:bold;font-size:12px;-inkscape-font-specification:'Sans Bold';text-align:center;text-anchor:middle;fill:#ffffff"
         id="path4893" />
      <path
         d="m 4613.4785,1172.6144 v 1.5293 h -5.7715 c 0.062,-0.5781 0.25,-1.126 0.5625,-1.6436 0.3125,-0.5176 0.9297,-1.2041 1.8516,-2.0595 0.7422,-0.6915 1.1973,-1.1602 1.3652,-1.4063 0.2266,-0.3398 0.3399,-0.6758 0.3399,-1.0078 0,-0.3672 -0.099,-0.6494 -0.2959,-0.8467 -0.1973,-0.1972 -0.4698,-0.2959 -0.8174,-0.2959 -0.3438,0 -0.6172,0.1035 -0.8203,0.3106 -0.2031,0.207 -0.3203,0.5507 -0.3516,1.0312 l -1.6406,-0.1641 c 0.098,-0.9062 0.4043,-1.5566 0.9199,-1.9511 0.5156,-0.3945 1.1602,-0.5918 1.9336,-0.5918 0.8477,0 1.5137,0.2285 1.9981,0.6855 0.4843,0.4571 0.7265,1.0254 0.7265,1.7051 0,0.3867 -0.069,0.7549 -0.208,1.1045 -0.1387,0.3496 -0.3584,0.7158 -0.6592,1.0986 -0.1992,0.2539 -0.5586,0.6192 -1.0781,1.0957 -0.5195,0.4766 -0.8486,0.793 -0.9873,0.9492 -0.1387,0.1563 -0.251,0.3086 -0.3369,0.4571 z"
         style="font-weight:bold;font-size:12px;-inkscape-font-specification:'Sans Bold';text-align:center;text-anchor:middle;fill:#ffffff"
         id="path4895" />
    </g>
    <rect
       rx="6.5385242"
       style="fill:#7e5330;fill-opacity:1;stroke:none;stroke-width:2.46583"
       id="rect6915-2-0-4-1-3-4"
       width="54.248302"
       height="34.521645"
       x="124.85446"
       y="153.6265"
       ry="6.5385242" />
    <g
       style="font-style:normal;font-weight:normal;font-size:40px;line-height:125%;font-family:Sans;letter-spacing:0px;word-spacing:0px;fill:#ffffff;fill-opacity:1;stroke:none"
       id="text6911-6-3-0-8-4-1"
       transform="matrix(2.4658318,0,0,2.4658318,-14636.007,-2489.8178)">
      <path
         d="m 5990.1401,1074.7936 h 1.7344 v 4.6523 c 0,0.7383 0.021,1.2168 0.065,1.4356 0.074,0.3515 0.2509,0.6338 0.5302,0.8466 0.2793,0.2129 0.6612,0.3194 1.1455,0.3194 0.4922,0 0.8633,-0.1006 1.1133,-0.3018 0.25,-0.2011 0.4004,-0.4482 0.4512,-0.7412 0.051,-0.2929 0.076,-0.7793 0.076,-1.459 v -4.7519 h 1.7343 v 4.5117 c 0,1.0313 -0.047,1.7598 -0.1406,2.1855 -0.094,0.4258 -0.2666,0.7852 -0.5185,1.0782 -0.252,0.2929 -0.5889,0.5263 -1.0108,0.7002 -0.4219,0.1738 -0.9726,0.2607 -1.6523,0.2607 -0.8203,0 -1.4424,-0.095 -1.8662,-0.2842 -0.4239,-0.1894 -0.7588,-0.4355 -1.0049,-0.7383 -0.2461,-0.3027 -0.4082,-0.6201 -0.4863,-0.9521 -0.1133,-0.4922 -0.17,-1.2187 -0.17,-2.1797 z"
         style="font-weight:bold;font-size:12px;-inkscape-font-specification:'Sans Bold';text-align:center;text-anchor:middle;fill:#ffffff"
         id="path5488" />
      <path
         d="m 5998.4839,1081.1744 1.6406,-0.1699 c 0.047,0.3711 0.1856,0.6651 0.416,0.8819 0.2305,0.2168 0.4961,0.3251 0.7969,0.3251 0.3437,0 0.6348,-0.1396 0.873,-0.4189 0.2383,-0.2793 0.3575,-0.7002 0.3575,-1.2627 0,-0.5273 -0.1182,-0.9228 -0.3545,-1.1865 -0.2364,-0.2637 -0.544,-0.3955 -0.9229,-0.3955 -0.4726,0 -0.8965,0.209 -1.2715,0.6269 l -1.3359,-0.1933 0.8438,-4.4707 h 4.3535 v 1.541 h -3.1055 l -0.2578,1.459 c 0.3672,-0.1836 0.7422,-0.2754 1.125,-0.2754 0.7305,0 1.3496,0.2656 1.8574,0.7969 0.5078,0.5312 0.7617,1.2207 0.7617,2.0683 0,0.707 -0.2051,1.3379 -0.6152,1.8926 -0.5586,0.7578 -1.334,1.1367 -2.3262,1.1367 -0.7929,0 -1.4394,-0.2129 -1.9394,-0.6387 -0.5,-0.4257 -0.7989,-0.998 -0.8965,-1.7168 z"
         style="font-weight:bold;font-size:12px;-inkscape-font-specification:'Sans Bold';text-align:center;text-anchor:middle;fill:#ffffff"
         id="path5490" />
    </g>
  </g>
</svg>
