<?xml version="1.0" encoding="UTF-8" standalone="no"?>
<!-- Created with Inkscape (http://www.inkscape.org/) -->

<svg
   width="92.319mm"
   height="53.032963mm"
   viewBox="0 0 92.319 53.032963"
   version="1.1"
   id="svg1"
   xmlns="http://www.w3.org/2000/svg"
   xmlns:svg="http://www.w3.org/2000/svg">
  <defs
     id="defs1" />
  <g
     id="layer1"
     transform="translate(-86.646913,-135.01182)">
    <circle
       id="path4944-4-8-5-7-8"
       style="fill:#ffffff;fill-opacity:1;stroke:#000000;stroke-width:4.91884;stroke-linejoin:round;stroke-miterlimit:4;stroke-dasharray:none;stroke-opacity:1"
       cx="103.86285"
       cy="152.22775"
       r="14.756509" />
    <circle
       style="fill:#528dba;fill-opacity:1;stroke:none;stroke-width:0.949846"
       id="path4946-4-4-7-0-7"
       cx="104.01533"
       cy="-152.45694"
       transform="scale(1,-1)"
       r="7.3782544" />
    <rect
       ry="6.5215168"
       y="153.61293"
       x="124.84425"
       height="34.431854"
       width="54.107197"
       id="rect6974-7-9-0-2"
       style="fill:#7dae4c;fill-opacity:0;stroke:none;stroke-width:2.45942"
       rx="6.5215168" />
    <g
       style="font-style:normal;font-weight:normal;font-size:40px;line-height:125%;font-family:Sans;letter-spacing:0px;word-spacing:0px;fill:#ffffff;fill-opacity:0;stroke:none"
       id="text6911-6-3-4-8"
       transform="matrix(2.4593202,0,0,2.4593202,-11852.399,-3156.7638)">
      <path
         d="m 4874.1318,1348.8942 h 1.7344 v 4.6523 c 0,0.7383 0.021,1.2168 0.064,1.4356 0.074,0.3515 0.2509,0.6337 0.5302,0.8466 0.2793,0.2129 0.6612,0.3194 1.1455,0.3194 0.4922,0 0.8633,-0.1006 1.1133,-0.3018 0.25,-0.2012 0.4004,-0.4482 0.4512,-0.7412 0.051,-0.293 0.076,-0.7793 0.076,-1.459 v -4.7519 h 1.7343 v 4.5117 c 0,1.0312 -0.047,1.7598 -0.1406,2.1855 -0.094,0.4258 -0.2666,0.7852 -0.5185,1.0782 -0.252,0.2929 -0.5889,0.5263 -1.0108,0.7002 -0.4219,0.1738 -0.9726,0.2607 -1.6523,0.2607 -0.8203,0 -1.4424,-0.095 -1.8662,-0.2842 -0.4239,-0.1894 -0.7588,-0.4355 -1.0049,-0.7383 -0.2461,-0.3027 -0.4082,-0.6201 -0.4863,-0.9521 -0.1133,-0.4922 -0.17,-1.2188 -0.17,-2.1797 z"
         style="font-weight:bold;font-size:12px;-inkscape-font-specification:'Sans Bold';text-align:center;text-anchor:middle;fill:#ffffff"
         id="path3686" />
      <path
         d="m 4886.665,1357.484 h -1.6464 v -6.2051 c -0.6016,0.5625 -1.3106,0.9786 -2.127,1.2481 v -1.4942 c 0.4297,-0.1406 0.8965,-0.4072 1.4004,-0.7998 0.5039,-0.3925 0.8496,-0.8505 1.0371,-1.374 h 1.3359 z"
         style="font-weight:bold;font-size:12px;-inkscape-font-specification:'Sans Bold';text-align:center;text-anchor:middle;fill:#ffffff"
         id="path3688" />
    </g>

  </g>
</svg>
