<?xml version="1.0" encoding="UTF-8" standalone="no"?>
<!-- Created with Inkscape (http://www.inkscape.org/) -->

<svg
   width="92.304527mm"
   height="53.032963mm"
   viewBox="0 0 92.304527 53.032963"
   version="1.1"
   id="svg1"
   inkscape:export-filename="u3punkt1.svg"
   inkscape:export-xdpi="96"
   inkscape:export-ydpi="96"
   sodipodi:docname="u12punkt1.svg"
   inkscape:version="1.4 (86a8ad7, 2024-10-11)"
   xmlns:inkscape="http://www.inkscape.org/namespaces/inkscape"
   xmlns:sodipodi="http://sodipodi.sourceforge.net/DTD/sodipodi-0.dtd"
   xmlns="http://www.w3.org/2000/svg"
   xmlns:svg="http://www.w3.org/2000/svg">
  <sodipodi:namedview
     id="namedview1"
     pagecolor="#ffffff"
     bordercolor="#000000"
     borderopacity="0.25"
     inkscape:showpageshadow="2"
     inkscape:pageopacity="0.0"
     inkscape:pagecheckerboard="0"
     inkscape:deskcolor="#d1d1d1"
     inkscape:document-units="mm"
     showguides="true"
     inkscape:zoom="3.0162528"
     inkscape:cx="236.71756"
     inkscape:cy="83.381606"
     inkscape:window-width="1920"
     inkscape:window-height="1057"
     inkscape:window-x="0"
     inkscape:window-y="0"
     inkscape:window-maximized="0"
     inkscape:current-layer="svg1">
    <sodipodi:guide
       position="16.521511,52.223736"
       orientation="0,-1"
       id="guide1"
       inkscape:locked="false" />
    <sodipodi:guide
       position="15.533741,20.036216"
       orientation="1,0"
       id="guide2"
       inkscape:locked="false" />
    <sodipodi:guide
       position="17.498751,34.773816"
       orientation="0,-1"
       id="guide3"
       inkscape:locked="false" />
    <inkscape:page
       x="0"
       y="0"
       width="92.304527"
       height="53.032963"
       id="page2"
       margin="0"
       bleed="0" />
  </sodipodi:namedview>
  <defs
     id="defs1" />
  <g
     inkscape:label="Ebene 1"
     inkscape:groupmode="layer"
     id="layer1"
     transform="translate(-86.646909,-135.01182)">
    <circle
       id="path4944-4-8-5-7-8"
       style="fill:#ffffff;fill-opacity:1;stroke:#000000;stroke-width:4.91884;stroke-linejoin:round;stroke-miterlimit:4;stroke-dasharray:none;stroke-opacity:1"
       cx="103.86285"
       cy="152.22775"
       r="14.756509" />
    <circle
       style="fill:#ff0000;fill-opacity:0.603846;stroke:none;stroke-width:0.949846"
       id="path4946-4-4-7-0-7"
       cx="104.01533"
       cy="-152.45694"
       transform="scale(1,-1)"
       r="7.3782544" />
    <rect
       rx="6.5351028"
       style="display:inline;fill:#da421e;fill-opacity:1;stroke:none;stroke-width:2.465;stroke-dasharray:none"
       id="rect6915-2-01-0-4-5"
       width="54.219913"
       height="34.503582"
       x="124.83891"
       y="153.62619"
       ry="6.5351028" />
    <path
       style="fill:#000000;fill-rule:evenodd;stroke-width:2.465;stroke-dasharray:none"
       d="M 177.95044,155.10852 126.84031,187.8587"
       id="path9" />
    <path
       style="fill:#7dad4c;fill-opacity:1;fill-rule:evenodd;stroke-width:0.819996;stroke-dasharray:none"
       d="m 125.83478,185.12246 c -0.44705,-0.68327 -0.79022,-1.46739 -0.96175,-2.19745 -0.14516,-0.61786 -0.15598,-1.4701 -0.15598,-12.28191 v -11.618 l 0.19877,-0.68576 c 0.19324,-0.66672 0.62436,-1.60223 0.97853,-2.12334 0.58969,-0.86767 1.84638,-1.85422 2.91672,-2.28975 1.26131,-0.51323 0.17419,-0.4901 23.03129,-0.4901 14.98253,0 21.16626,0.028 21.61817,0.0981 1.12751,0.17462 2.47807,0.77286 3.17308,1.40553 l 0.23179,0.29809 -0.9844,-0.0435 c -0.58811,0.001 -1.05228,0.0403 -1.08338,0.0906 -0.0304,0.0492 -0.44381,0.088 -0.93781,0.088 -0.55142,0 -1.06652,0.0532 -1.37067,0.14164 -0.268,0.0779 -0.6169,0.12062 -0.77534,0.0949 -0.15844,-0.0257 -0.6193,0.0256 -1.02412,0.1141 -0.40481,0.0885 -0.8364,0.14166 -0.95907,0.11821 -0.12267,-0.0234 -0.47842,0.0262 -0.79056,0.1103 -0.54076,0.14572 -1.16585,0.20293 -2.63588,0.2412 -0.36307,0.009 -0.77893,0.0535 -0.92416,0.0979 -0.15111,0.0461 -4.40507,0.0904 -9.9457,0.10351 -11.6831,0.0276 -11.51785,0.0232 -13.20227,0.34811 -1.18881,0.22931 -1.5042,0.25512 -3.16853,0.25923 -1.13922,0.003 -1.93274,0.0417 -2.06836,0.10118 -0.12103,0.0531 -0.65571,0.16467 -1.1882,0.24785 -0.53249,0.0832 -1.10679,0.21111 -1.27622,0.28429 -0.39455,0.17041 -1.30873,0.30709 -1.96276,0.29344 -0.68015,-0.0142 -1.48972,0.14207 -1.581,0.30517 -0.0502,0.0897 -0.21921,0.13252 -0.53131,0.1346 -0.43693,0.003 -0.48268,0.0268 -1.0078,0.52589 -0.43589,0.41428 -0.55009,0.57754 -0.55009,0.78635 0,0.14494 -0.10072,0.57171 -0.22381,0.94837 -0.1231,0.37666 -0.20164,0.77361 -0.17455,0.88213 0.0271,0.1085 -0.0108,0.34108 -0.0842,0.51683 -0.0735,0.17575 -0.13352,0.43718 -0.13352,0.58096 0,0.14378 -0.0792,0.36212 -0.17603,0.48521 -0.13687,0.17399 -0.17603,0.35706 -0.17603,0.82282 0,0.32947 -0.0347,0.62045 -0.0769,0.64662 -0.0834,0.0515 -0.17712,0.72647 -0.22698,1.6351 -0.0172,0.31465 -0.0737,0.75033 -0.12562,0.96817 -0.0518,0.21783 -0.0952,0.63603 -0.0964,0.92931 -0.002,0.36878 -0.0836,0.75639 -0.2662,1.25675 -0.18839,0.51623 -0.26404,0.88162 -0.26404,1.27546 0,0.30358 -0.0347,0.58959 -0.0771,0.63557 -0.16438,0.17816 -0.45744,1.14048 -0.5829,1.914 -0.0723,0.44554 -0.13154,1.31392 -0.13173,1.92975 -2.7e-4,1.01697 0.0206,1.16634 0.22837,1.62828 0.21512,0.47831 0.22554,0.56459 0.17483,1.44897 -0.0511,0.89105 0.0239,1.54808 0.22129,1.93827 0.0418,0.0826 0.10171,0.31123 0.13318,0.50805 0.0315,0.19682 0.0916,0.37911 0.13369,0.40511 0.11701,0.0724 0.0889,1.08234 -0.044,1.5814 -0.0651,0.24439 -0.0997,0.57115 -0.0769,0.72614 0.0756,0.51446 -0.062,1.06244 -0.34836,1.38862 -0.1484,0.16902 -0.29425,0.42588 -0.3241,0.5708 l -0.0543,0.2635 z"
       id="path71"
       sodipodi:nodetypes="csscccsscsccssccscccccscccssscsssccsssccccssccccscccccsccc" />
    <path
       style="fill:#7dad4c;fill-opacity:1;fill-rule:evenodd;stroke-width:2.465;stroke-dasharray:none"
       d="m 126.71626,185.62573 49.80756,-30.02099"
       id="path72" />
    <path
       id="path73"
       style="fill:#7dad4c;fill-opacity:1;fill-rule:evenodd;stroke-width:2.465;stroke-dasharray:none"
       d="m 175.49213,154.57858 c -0.40747,0.003 -0.81276,0.0184 -0.89142,0.0341 -0.0454,0.009 -0.0791,0.0508 -0.12402,0.062 -0.14032,0.0351 -0.28677,0.0252 -0.43408,0.062 -0.13767,0.0344 -0.36692,0 -0.4961,0 h -1.61282 c -0.23746,0 -0.91486,-0.0671 -1.11621,0 -0.0277,0.009 -0.0336,0.055 -0.062,0.062 -0.22356,0.0559 -0.5821,0 -0.80667,0 h -1.6123 -4.40439 c -0.70898,0 -1.46523,0.0641 -2.17092,0 -0.43428,-0.0395 -0.86797,-0.14654 -1.30225,-0.18604 -0.42558,-0.0387 -0.87505,0 -1.30276,0 -0.18168,0 -0.43783,-0.0365 -0.62012,0 -0.72912,0.1458 -1.4914,-0.0122 -2.23294,0.062 -0.64212,0.064 -1.27457,0.062 -1.92288,0.062 -0.21594,0 -0.46528,-0.0241 -0.68213,0 -0.125,0.0139 -0.24853,0.0413 -0.37258,0.062 -0.062,0.0207 -0.12154,0.0512 -0.18604,0.062 -0.36899,0.0615 -0.80504,0 -1.17822,0 h -4.65191 c -0.9555,0 -1.90703,-0.0327 -2.85358,0.062 -0.36848,0.0369 -0.74773,-0.0368 -1.11621,0 -0.35714,0.0357 -0.701,0.14673 -1.05471,0.18603 -0.41303,0.0459 -0.82599,0.0909 -1.24024,0.12403 -0.63217,0.0506 -1.29318,-0.0787 -1.92288,0 -0.48545,0.0607 -1.08598,0.13183 -1.55081,0.24804 -0.44162,0.11038 0.12999,0.0153 -0.49609,0.18604 -0.37179,0.10136 -0.74525,0.0709 -1.11673,0.12402 -0.47901,0.0684 -0.9536,0.27078 -1.42627,0.37207 -0.28591,0.0613 -0.57922,0.0827 -0.86868,0.12403 -1.49172,0.2131 -2.50593,0.20609 -3.72174,1.17874 -0.18716,0.14973 -0.36317,0.34989 -0.5581,0.49609 -0.0369,0.0277 -0.0951,0.0259 -0.12402,0.062 -0.0578,0.0722 -0.0662,0.17585 -0.12403,0.24805 -0.0288,0.0361 -0.087,0.0343 -0.12402,0.062 -0.16137,0.12102 -0.23304,0.23303 -0.37207,0.37207 -0.0387,0.0386 -0.15055,0.0565 -0.24805,0.18655 -0.10165,0.13557 -0.0771,0.29325 -0.12402,0.43408 -0.0352,0.10569 -0.15924,0.20271 -0.18604,0.31006 -0.15799,0.63177 0.42494,-0.60285 -0.18655,0.62012 -0.0872,0.17446 -0.21536,0.32559 -0.31006,0.49609 -0.18743,0.33738 -0.28524,0.70744 -0.43408,1.05472 -0.0293,0.0685 -0.0946,0.11754 -0.12402,0.18604 -0.0335,0.0784 -0.0239,0.17174 -0.062,0.24804 -0.0462,0.0925 -0.13983,0.15555 -0.18603,0.24805 -0.0381,0.0762 -0.0351,0.16715 -0.062,0.24805 -0.0608,0.18234 -0.23176,0.71211 -0.31006,0.86868 -0.013,0.0261 -0.053,0.0343 -0.062,0.062 -0.0479,0.14364 0.0214,0.34603 0,0.49609 -0.012,0.0844 -0.0413,0.16535 -0.062,0.24805 0,0.0827 0.009,0.16585 0,0.24805 -0.0464,0.41755 -0.20165,0.82321 -0.24805,1.24075 -0.009,0.0822 0,0.16534 0,0.24804 -0.0207,0.062 -0.054,0.12114 -0.062,0.18604 -0.0167,0.13404 0.0474,0.41588 0,0.5581 -0.0146,0.0439 -0.053,0.0787 -0.062,0.12403 -0.0557,0.27862 0.0468,0.58814 0,0.86868 -0.0885,0.53087 -0.062,1.06754 -0.062,1.6123 0,0.22311 0.0539,0.52917 0,0.74466 -0.007,0.0283 -0.055,0.0336 -0.062,0.062 -0.0378,0.15114 0.0221,0.34167 0,0.4961 -0.0489,0.34195 -0.0569,0.71908 -0.12402,1.05471 -0.0465,0.23232 -0.13974,0.45082 -0.18604,0.68213 -0.0334,0.16712 0,0.3887 0,0.55811 0,0.5332 -0.002,1.0467 0.12403,1.55081 0.0282,0.11274 -0.0225,0.25966 0,0.37207 0.0336,0.16801 0.0983,0.10186 0.18603,0.24804 0.1187,0.19795 0.004,0.19804 0.062,0.37207 0.009,0.0277 0.0489,0.0359 0.062,0.062 0.0381,0.0762 -0.12707,0.20414 0.062,0.24804 0.0114,0.0172 0.055,-0.0196 0.062,0 0.052,0.15596 0.0392,0.58768 0,0.74466 -0.0777,0.31098 -1.5e-4,0.62092 -0.062,0.93018 -0.0306,0.15296 -0.15894,0.27165 -0.18604,0.43408 -0.0335,0.20116 0.0335,0.41947 0,0.62063 -0.1268,0.76068 -0.062,1.57921 -0.062,2.35696 v 2.23294 c 0,0.0534 -0.032,0.34007 0,0.37207 0.0146,0.0146 0.0474,-0.0146 0.062,0 0.0347,0.0347 -0.0135,0.26966 0,0.31006 0.009,0.0277 0.053,0.0343 0.062,0.062 0.0333,0.10002 0.0364,0.20778 0.062,0.31006 0.0316,0.12657 -0.0447,0.82398 0,0.86868 0.0146,0.0146 0.0474,-0.0146 0.062,0 0.0292,0.0293 -0.0292,0.0948 0,0.12403 0.0146,0.0146 0.0474,-0.0146 0.062,0 0.0216,0.0216 0.0153,0.0715 0.005,0.12454 8.8e-4,0.001 0.002,0.003 0.003,0.004 3.3e-4,3.4e-4 2.1e-4,8.1e-4 5.1e-4,0.001 0.002,0.003 0.005,0.005 0.007,0.008 0.009,0.01 0.0173,0.0195 0.0248,0.03 0.007,0.0101 0.0146,0.0204 0.0212,0.031 0.002,0.003 0.004,0.007 0.006,0.01 0.004,0.004 0.008,0.009 0.0124,0.0134 0.008,0.008 0.0159,0.0162 0.0238,0.0243 0.009,0.01 0.018,0.0192 0.0258,0.03 l 5.1e-4,5.2e-4 c 0.003,0.002 0.006,0.005 0.01,0.007 0.01,0.007 0.0187,0.0138 0.0289,0.0196 0.01,0.007 0.0195,0.0138 0.0289,0.0212 0.01,0.008 0.0182,0.0169 0.0258,0.0269 0.003,0.004 0.006,0.008 0.009,0.0119 0.14999,0.0262 0.31726,0.0431 0.38706,0.009 0.0523,-0.0262 0.0717,-0.0979 0.12402,-0.12403 0.0261,-0.013 0.17204,0.0225 0.18604,0 0.0961,-0.15379 0.13672,-0.34009 0.24288,-0.48679 -0.0261,0.0837 -0.13734,0.21873 -0.0574,0.23875 0.0693,0.0173 0.10146,-0.21407 0.0801,-0.25012 h 5.2e-4 c 0.15962,-0.0186 0.32217,-0.021 0.47801,-0.0599 0.0193,-0.005 0.0623,-0.18635 0.12402,-0.24805 0.0722,-0.0722 0.12894,-0.0384 0.18604,-0.12402 0.14064,-0.21093 -0.0449,-0.0753 0.24856,-0.31006 0.036,-0.0289 0.0913,-0.0293 0.12402,-0.062 0.0146,-0.0146 -0.0146,-0.0474 0,-0.062 0.0348,-0.0348 0.15455,-0.0738 0.24805,-0.18604 0.14317,-0.17181 0.15703,-0.24506 0.31006,-0.37259 0.0794,-0.0662 0.15935,-0.13283 0.24805,-0.18603 0.0177,-0.0106 0.0474,0.0146 0.062,0 0.0327,-0.0326 0.0293,-0.0913 0.062,-0.12403 0.0327,-0.0327 0.0879,-0.0331 0.12402,-0.062 0.15982,-0.12786 0.28006,-0.29929 0.43409,-0.43408 0.15561,-0.13615 0.34989,-0.22587 0.49609,-0.37207 0.15507,-0.15507 0.21752,-0.40304 0.37259,-0.55811 0.2003,-0.2003 0.54751,-0.38384 0.74414,-0.55862 0.099,-0.088 0.15444,-0.21646 0.24804,-0.31006 0.0936,-0.0936 0.21646,-0.15444 0.31006,-0.24804 0.32241,-0.32234 -0.0589,-0.0645 0.24805,-0.31006 0.35627,-0.28501 0.65371,-0.62251 0.9927,-0.93069 0.11949,-0.10862 0.25789,-0.19588 0.37207,-0.31006 0.11419,-0.11419 0.19587,-0.25789 0.31006,-0.37207 0.32184,-0.32181 0.14314,-0.0912 0.4961,-0.24805 0.13805,-0.0614 0.43765,-0.26622 0.55862,-0.37207 0.36646,-0.32065 0.12863,-0.19877 0.5581,-0.49609 0.46524,-0.32209 0.99248,-0.56321 1.42679,-0.9307 0.13393,-0.11332 0.23508,-0.26248 0.37207,-0.37207 0.41955,-0.33564 1.1192,-0.71101 1.61231,-0.93017 0.45285,-0.20127 0.98292,-0.27468 1.42678,-0.49661 0.20289,-0.10144 0.62963,-0.45397 0.80667,-0.55811 0.67654,-0.39797 1.4236,-0.66684 2.10892,-1.0542 0.92115,-0.52065 0.54427,-0.36337 1.67431,-1.11673 0.61739,-0.4116 1.29629,-0.71747 1.92288,-1.11621 0.70477,-0.44848 1.54389,-0.63926 2.29495,-0.9927 1.00018,-0.47067 1.92172,-1.15443 2.85358,-1.73685 0.26763,-0.16727 0.52016,-0.36263 0.80615,-0.49609 0.33776,-0.15763 0.71323,-0.22267 1.05471,-0.37207 0.32202,-0.14088 0.62004,-0.33068 0.93018,-0.49609 0.31013,-0.1654 0.63083,-0.3124 0.93018,-0.49661 0.2395,-0.14739 0.44971,-0.33853 0.68264,-0.4961 0.65138,-0.44064 1.42297,-0.92825 2.10892,-1.36477 l 0.68212,-0.43408 c 0.18608,-0.10337 0.37759,-0.19724 0.55811,-0.31006 0.55672,-0.34796 0.32333,-0.29857 0.93069,-0.62012 0.38416,-0.20338 0.77869,-0.38688 1.17823,-0.55811 0.22243,-0.0953 0.46415,-0.14451 0.68264,-0.24856 0.63469,-0.30223 1.13716,-0.85425 1.86087,-0.99219 0.89755,-0.42073 0.65504,-0.25609 1.67432,-0.5581 0.61913,-0.18344 1.12061,-0.42797 1.67483,-0.74466 0.24939,-0.14251 0.479,-0.3236 0.74414,-0.43408 0.13894,-0.0579 0.29587,-0.0656 0.4346,-0.12402 0.57108,-0.24046 1.09828,-0.5875 1.6123,-0.93018 0.14134,-0.0942 0.6337,-0.46552 0.80667,-0.55862 0.13864,-0.0746 0.30123,-0.10154 0.43408,-0.18604 0.0987,-0.0628 0.15445,-0.17784 0.24805,-0.24804 0.46191,-0.34642 1.09085,-0.48137 1.61282,-0.68213 0.13916,-0.0535 0.23364,-0.19265 0.37207,-0.24805 0.0991,-0.0396 0.38163,-0.0858 0.4961,-0.12402 0.0555,-0.0185 0.0685,-0.10553 0.12402,-0.12403 0.0393,-0.0131 0.0839,0.01 0.12402,0 0.0449,-0.0112 0.0827,-0.0413 0.12403,-0.062 0.0207,-0.0206 0.0343,-0.053 0.062,-0.062 0.0393,-0.0131 0.0875,0.0185 0.12454,0 0.0413,-0.0207 0.0207,-0.10332 0.062,-0.12402 0.037,-0.0185 0.087,0.0185 0.12402,0 0.56955,-0.28481 -0.42538,0.0456 0.31006,-0.24857 0.0384,-0.0154 0.087,0.0185 0.12403,0 0.0185,-0.009 -0.0146,-0.0469 0,-0.0615 0.06,-0.06 0.28937,-0.16585 0.37207,-0.18655 0.0602,-0.015 0.14213,0.0439 0.18603,0 0.12305,-0.1231 -0.29377,-0.0196 0.12403,-0.12403 0.0285,-0.007 0.0976,0.003 0.16433,0.0103 l 0.006,-0.003 c 0.008,-0.004 0.0151,-0.006 0.0227,-0.01 0.008,-0.004 0.0159,-0.008 0.0238,-0.0124 0.007,-0.004 0.0148,-0.008 0.0227,-0.0103 0.008,-0.002 0.0165,-0.006 0.0243,-0.0103 0.008,-0.004 0.0149,-0.008 0.0222,-0.0129 0.005,-0.004 0.0104,-0.007 0.0155,-0.0109 0.007,-0.005 0.0146,-0.008 0.0222,-0.0119 0.008,-0.004 0.0144,-0.008 0.0212,-0.0134 0.006,-0.005 0.0137,-0.009 0.0207,-0.0129 0.006,-0.003 0.0111,-0.007 0.016,-0.0119 0.005,-0.005 0.009,-0.0106 0.0129,-0.016 0.004,-0.005 0.009,-0.01 0.0129,-0.0145 0.005,-0.004 0.0102,-0.007 0.0155,-0.01 0.005,-0.003 0.009,-0.005 0.0145,-0.008 6.6e-4,-3.5e-4 0.17306,-0.10347 0.17451,-0.10373 -0.0795,-0.0868 -0.18151,-0.16279 -0.22261,-0.24557 -10e-4,-0.001 -0.0233,0.007 -0.0243,0.006 -0.007,-0.009 0.009,-0.0282 0.003,-0.0376 -0.005,-0.007 -0.0297,-0.006 -0.0344,-0.0128 -0.0157,0.002 -0.0142,0.004 -0.0245,-0.006 -0.0168,-0.0168 -0.0166,-0.0506 -0.0202,-0.0806 -0.003,-0.004 -0.006,-0.007 -0.009,-0.0114 -0.006,-0.007 -0.0115,-0.0146 -0.0176,-0.0217 -0.007,-0.008 -0.0142,-0.0164 -0.0217,-0.0243 -0.008,-0.009 -0.0164,-0.0189 -0.0243,-0.0284 -0.002,-0.003 -0.004,-0.006 -0.007,-0.008 -0.003,-0.003 -0.007,-0.006 -0.0103,-0.009 -0.009,-0.008 -0.0175,-0.017 -0.0258,-0.0253 -0.0262,-0.0262 -0.14186,0.0162 -0.16876,-0.009 -0.0409,-0.006 0.006,-0.0787 -0.006,-0.0911 -0.005,-0.005 -0.0574,0.0159 -0.0607,-0.0171 -0.004,-0.004 -0.0187,7.5e-4 -0.0231,-0.003 -0.007,-0.005 0.0222,-0.0283 0.0151,-0.0339 -0.007,-0.005 -0.0395,-0.0274 -0.0464,-0.0324 -0.007,-0.005 -0.0237,-0.0147 -0.0309,-0.0199 -0.006,-0.004 -0.0135,0.022 -0.0195,0.0181 -0.007,-0.005 -0.0327,-0.004 -0.0396,-0.009 -0.007,-0.005 -0.001,-0.0278 -0.008,-0.0334 -0.008,-0.006 -3e-4,-0.009 -0.008,-0.0141 -0.008,-0.005 -0.0391,-0.0168 -0.0476,-0.0207 -0.008,-0.004 0.0162,0.0133 0.008,0.009 -0.006,-0.004 -0.009,-0.003 -0.0157,-0.006 -0.008,-0.004 -0.0561,-0.005 -0.0629,-0.0106 -0.006,-0.005 -0.008,-0.007 -0.0126,-0.0137 -7.4e-4,-0.001 0.0184,-0.0136 0.0174,-0.0156 -0.17756,-0.0111 -0.35871,-0.0826 -0.63251,-0.0804 z m 0.63185,0.0913 c 0.001,8.9e-4 0.0243,0.002 0.0253,0.004 0.006,0.005 0.0125,0.007 0.0191,0.0105 -0.14613,0.13581 0.0388,-0.003 0.0454,6.1e-4 0.008,0.004 -0.0234,0.041 -0.0155,0.0448 0.009,0.004 0.0251,0.0264 0.0336,0.0314 0.009,0.005 0.0423,-0.0431 0.0505,-0.0372 0.007,0.006 -0.0151,0.0298 -0.008,0.0349 0.007,0.005 0.0216,-0.007 0.0285,-0.003 -0.0328,0.037 -0.0271,0.0342 -0.0212,0.0386 0.007,0.005 0.0572,-0.0127 0.0643,-0.007 0.007,0.005 -0.0579,0.11273 0.0304,0.0111 0.007,0.005 -0.0196,0.0183 -0.0128,0.0232 -0.31032,0.10394 -0.25909,0.11015 -0.29039,0.0997 -0.0253,-0.008 0.10256,-0.12198 0.0666,-0.23747 z m 0.38887,0.31626 c -0.16214,0.1073 -0.0179,0.0307 -0.0193,0.0311 l -0.0355,0.009 c -0.01,0.002 0.0745,0.0418 0.0813,0.0493 0.007,0.007 0.0326,-0.0213 0.039,-0.0135 0.005,0.007 0.019,0.002 0.0248,0.009 0.005,0.004 0.0275,-0.0162 0.0325,-0.0123 0.003,0.002 -0.0396,0.0341 -0.0366,0.0361 0.009,0.008 -0.0159,0.007 -0.008,0.0166 -0.20846,0.11748 -0.0854,0.0834 -0.10881,0.0605 -0.013,-0.013 -0.15686,0.15138 -0.031,-0.12997 z m -50.48282,30.51104 c -4.8e-4,0.003 -6.5e-4,0.005 -10e-4,0.007 6.6e-4,-1.7e-4 10e-4,-3.5e-4 0.002,-5.2e-4 0.001,-1.1e-4 0.003,-1e-5 0.004,0 -0.002,-0.002 -0.003,-0.004 -0.005,-0.007 z m 0.10542,0.14986 c -4.6e-4,0.001 -5.2e-4,0.002 -5.1e-4,0.003 8.4e-4,-3.8e-4 0.002,-0.001 0.003,-0.002 -2.4e-4,1.1e-4 -8.9e-4,-8e-5 -0.001,0 -10e-4,0.003 -10e-4,-8.5e-4 -10e-4,-5.2e-4 z"
       sodipodi:nodetypes="cccsssccscscssccssccssccscccccccscccccsccccccscccccccccccccscccccsccccccccsccsssscccscsscscccccscccccccccccccccccccsscccccscsssscsssscssssssssssssssssssccscccsssccccscccsscccccccsccccscccccccccscccscccccscccccccsccccccccccscccccccccccscccccccccccccssccccccccccccccccccccc" />
    <path
       style="fill:#7dad4c;fill-opacity:1;fill-rule:evenodd;stroke-width:2.465;stroke-dasharray:none"
       d="m 126.49529,185.92036 c -0.005,0.003 -0.0181,0.003 -0.0155,0.008 0.003,0.005 0.0211,-0.009 0.0155,-0.008 -0.0107,0.003 -0.0203,0.009 -0.031,0.0116 -0.001,2.7e-4 5.3e-4,-0.003 0,-0.004 -0.004,-0.009 5.3e-4,-0.003 -0.004,-0.0116 -5.3e-4,-0.001 -0.003,7.9e-4 -0.004,0 -0.002,-0.002 -0.002,-0.006 -0.004,-0.008 -7.9e-4,-7.9e-4 -0.003,0.001 -0.004,0 -0.002,-0.003 0.003,-0.009 0,-0.0116 -0.002,-0.002 -0.006,-0.002 -0.008,-0.004 -0.002,-0.002 10e-4,-0.005 0,-0.008 -0.008,-0.0161 2.6e-4,0.004 -0.008,-0.004 -0.008,-0.008 0.0123,2.7e-4 -0.004,-0.008 -0.002,-0.001 -0.01,-0.007 -0.0116,-0.0116 -7.9e-4,-0.002 10e-4,-0.005 0,-0.008 -5.3e-4,-0.001 -0.003,8e-4 -0.004,0 -0.004,-0.004 -5e-5,-0.004 -0.008,-0.008 -0.007,-0.004 -0.009,-0.0124 -0.0116,-0.0155 -0.002,-0.002 -0.009,-0.003 -0.0116,-0.008 -5.3e-4,-0.001 7.9e-4,-0.003 0,-0.004 -7.9e-4,-7.9e-4 -0.003,0.001 -0.004,0 -10e-4,-0.002 0.002,-0.006 0,-0.008 -0.002,-0.002 -0.006,0.002 -0.008,0 -0.002,-0.002 7.9e-4,-0.005 0,-0.008 -0.002,-0.007 -0.013,-0.009 -0.0155,-0.0116 -0.002,-0.002 0.002,-0.006 0,-0.008 -0.003,-0.003 -0.008,-0.002 -0.0116,-0.008 -0.004,-0.005 -0.0161,-0.0168 -0.0194,-0.0233 -5.3e-4,-0.001 7.9e-4,-0.003 0,-0.004 -8e-4,-8e-4 -0.003,0.001 -0.004,0 -0.001,-0.002 8e-4,-0.005 0,-0.008 -0.004,-0.0121 -0.003,10e-4 -0.008,-0.004 -0.002,-0.002 -0.005,-0.0126 -0.008,-0.0155 -7.9e-4,-7.9e-4 -0.003,7.9e-4 -0.004,0 -0.008,-0.008 0.0122,2.6e-4 -0.004,-0.008 -0.005,-0.003 -0.003,0.005 -0.008,-0.004 -0.001,-0.002 0.002,-0.006 0,-0.008 -7.9e-4,-7.9e-4 -0.003,8e-4 -0.004,0 -0.004,-0.004 -0.005,-0.0107 -0.008,-0.0155 -0.002,-0.002 -0.006,-0.001 -0.008,-0.004 -0.006,-0.0123 0.008,-0.004 -0.004,-0.0155 -0.002,-0.002 -0.006,-0.002 -0.008,-0.004 -0.003,-0.003 0,-0.0276 0,-0.031 0,-0.0112 -1.4e-4,-0.0386 0.008,-0.0465 0.003,-0.003 0.008,-0.004 0.0116,-0.008 0.007,-0.007 0.0102,-0.0177 0.0194,-0.0233 0.0122,-0.007 0.0327,-0.0132 0.0465,-0.0155 0.043,-0.007 0.10172,0.004 0.13956,0.0232 0.0143,0.007 0.0367,0.029 0.0504,0.0388 0.0213,0.0152 0.0123,-0.002 0.031,0.0233 0.003,0.005 0.005,0.0107 0.008,0.0155 0.009,0.0139 0.0179,0.0249 0.0271,0.0388 0.004,0.005 0.009,0.01 0.0116,0.0155 0.007,0.0144 0.004,0.0348 0.004,0.0504 0,0.0102 0.002,0.025 0,0.0349 -5.3e-4,0.002 -0.003,0.002 -0.004,0.004 -0.003,0.006 -0.004,0.0137 -0.008,0.0194 -0.003,0.004 -0.008,0.005 -0.0116,0.008 -0.003,0.003 -0.0284,0.0306 -0.031,0.0349 -0.004,0.007 -0.006,0.0202 -0.0116,0.0271 -0.002,0.002 -0.006,0.002 -0.008,0.004 -0.002,0.002 -0.002,0.005 -0.004,0.008 -0.0115,0.0172 -0.022,0.0231 -0.0427,0.0349 z"
       id="path76" />
  </g>
  <path
     style="fill:#7dad4c;fill-opacity:1;fill-rule:evenodd;stroke-width:2.465;stroke-dasharray:none"
     d="M 90.431275,20.453355 39.836746,50.924047 c -0.355144,-0.93251 0.304777,-0.898823 0.480709,-1.426618 0.02615,-0.07846 -0.02615,-0.169649 0,-0.248107 0.01849,-0.05548 0.10987,-0.06732 0.124053,-0.124054 0.08477,-0.339066 -0.155717,-0.929102 0,-1.240537 0.181903,-0.363806 0.262245,-1.322178 0.124054,-1.736752 -0.01849,-0.05548 -0.105561,-0.06858 -0.124054,-0.124054 -0.03923,-0.117688 0.08772,-0.284442 0,-0.372161 -0.02924,-0.02924 -0.110977,0.03923 -0.124053,0 -0.03923,-0.117688 0.03009,-0.251811 0,-0.372161 -0.01418,-0.05673 -0.109871,-0.06732 -0.124054,-0.124054 0,-0.705493 0.05548,-0.08167 -0.124054,-0.620268 -0.22315,-0.669452 0.202784,-1.557021 0,-2.232967 -0.09049,-0.30164 -0.272574,-0.569615 -0.372161,-0.868376 -0.106649,-0.319947 -0.0757,-2.302312 0,-2.605128 0.106477,-0.425906 0.05406,-0.44839 0.124054,-0.868376 0.07163,-0.429765 0.339016,-1.121847 0.496215,-1.488644 0.02304,-0.05375 0.112585,-0.06671 0.124053,-0.124054 0.06488,-0.324386 -0.05438,-0.666121 0,-0.99243 0.07806,-0.468342 0.346306,-1.038916 0.496215,-1.488644 0.0993,-0.297897 -0.07639,-0.686871 0,-0.99243 0.09873,-0.394921 0.188936,-0.826333 0.248108,-1.240537 0.04093,-0.286549 -0.05677,-0.584538 0,-0.868376 0.01813,-0.09067 0.10592,-0.157439 0.124053,-0.248107 0.0087,-0.04331 -0.05198,-0.516313 0,-0.620269 0.02615,-0.05231 0.105561,-0.06857 0.124054,-0.124053 0.14723,-0.441691 -0.108704,-0.899076 0.124054,-1.364591 0.05231,-0.104611 0.211121,-0.137151 0.248107,-0.248108 0.05231,-0.156916 -0.02719,-0.33306 0,-0.496214 0.03656,-0.219344 0.1588,-0.441654 0.248108,-0.620269 0.07906,-0.158115 -0.04305,-0.448056 0,-0.620268 0.09092,-0.363693 0.219713,-0.811588 0.372161,-1.116484 0.0568,-0.113597 -0.01614,-0.555724 0,-0.620268 0.02481,-0.09924 0.297729,-0.297729 0.372161,-0.372161 0.197675,-0.197676 0.399124,-0.454411 0.620268,-0.620269 0.310402,-0.232801 0.308856,-0.06184 0.744323,-0.124054 0.344656,0.241311 0.316808,-0.203255 0.496214,-0.248107 0.335211,-0.0838 0.285059,-0.04025 0.620269,-0.124054 0.372117,-0.09303 0.868103,0.04655 1.240537,0 0.129754,-0.01622 0.242711,-0.105561 0.372161,-0.124054 0.163743,-0.02339 0.332472,0.02339 0.496215,0 0.382344,-0.05462 0.735345,-0.308638 1.116483,-0.372161 0.530322,-0.08839 1.079825,-0.159295 1.612698,-0.248107 0.356568,-0.05943 0.621796,-0.248108 0.99243,-0.248108 1.049172,0 2.187141,0.129782 3.225397,0 0.992146,-0.124018 1.976786,-0.385047 2.977288,-0.496214 0.608268,-0.06759 1.257861,0.10049 1.860806,0 1.093058,-0.182177 2.227231,-0.124054 3.34945,-0.124054 1.571347,0 3.142694,0 4.714041,0 2.605128,0 5.210256,0 7.815384,0 0.783055,0 3.091589,0.157505 3.721611,0 0.05673,-0.01418 0.06732,-0.10987 0.124053,-0.124054 0.412865,-0.103216 0.9476,0.05957 1.364591,0 0.12945,-0.01849 0.242711,-0.105561 0.372161,-0.124053 0.327472,-0.04678 0.796203,0.10676 1.116484,0 0.331108,-0.11037 0.655698,-0.163925 0.992429,-0.248108 0.233513,-0.05838 0.51081,0.05838 0.744323,0 0.37276,-0.09319 0.743804,-0.154938 1.116483,-0.248107 0.302017,-0.0755 0.696757,0.09856 0.99243,0 0.294208,-0.09807 0.569925,-0.173495 0.868376,-0.248108 0.252183,-0.06305 1.643071,0.09368 1.736751,0 0.02924,-0.02924 -0.02924,-0.09481 0,-0.124053 0.128006,-0.128005 2.023504,-0.04132 2.22909,-0.01551 z"
     id="path70" />
  <path
     style="fill:#7dad4c;fill-opacity:1;fill-rule:evenodd;stroke-width:2.465;stroke-dasharray:none"
     d="M 90.404137,20.437848 39.835489,50.921004"
     id="path69" />
  <g
     style="font-style:normal;font-weight:normal;font-size:40px;line-height:125%;font-family:Sans;letter-spacing:0px;word-spacing:0px;display:inline;fill:#ffffff;fill-opacity:1;stroke:none"
     id="text6911-6-2-9-1-9"
     transform="matrix(2.4645415,0,0,2.4645415,-11287.897,-2847.1289)">
    <path
       d="m 4597.6654,1165.5538 h 1.7343 v 4.6524 c 0,0.7383 0.021,1.2168 0.064,1.4355 0.074,0.3516 0.251,0.6338 0.5303,0.8467 0.2793,0.2129 0.6611,0.3193 1.1455,0.3193 0.4921,0 0.8632,-0.1005 1.1132,-0.3017 0.25,-0.2012 0.4004,-0.4483 0.4512,-0.7412 0.051,-0.293 0.076,-0.7793 0.076,-1.459 v -4.752 h 1.7344 v 4.5118 c 0,1.0312 -0.047,1.7597 -0.1407,2.1855 -0.094,0.4258 -0.2666,0.7852 -0.5185,1.0781 -0.252,0.293 -0.5889,0.5264 -1.0108,0.7002 -0.4218,0.1738 -0.9726,0.2608 -1.6523,0.2608 -0.8203,0 -1.4424,-0.095 -1.8662,-0.2842 -0.4238,-0.1895 -0.7588,-0.4356 -1.0049,-0.7383 -0.2461,-0.3027 -0.4082,-0.6201 -0.4863,-0.9521 -0.1133,-0.4922 -0.1699,-1.2188 -0.1699,-2.1797 z"
       style="font-weight:bold;font-size:12px;-inkscape-font-specification:'Sans Bold';text-align:center;text-anchor:middle;fill:#ffffff"
       id="path4893" />
    <path
       d="m 4615.8402,1172.6144 v 1.5293 h -5.7715 c 0.062,-0.5781 0.25,-1.126 0.5625,-1.6436 0.3125,-0.5176 0.9297,-1.2041 1.8516,-2.0595 0.7422,-0.6915 1.1973,-1.1602 1.3652,-1.4063 0.2266,-0.3398 0.3399,-0.6758 0.3399,-1.0078 0,-0.3672 -0.099,-0.6494 -0.2959,-0.8467 -0.1973,-0.1972 -0.4698,-0.2959 -0.8174,-0.2959 -0.3438,0 -0.6172,0.1035 -0.8203,0.3106 -0.2031,0.207 -0.3203,0.5507 -0.3516,1.0312 l -1.6406,-0.1641 c 0.098,-0.9062 0.4043,-1.5566 0.9199,-1.9511 0.5156,-0.3945 1.1602,-0.5918 1.9336,-0.5918 0.8477,0 1.5137,0.2285 1.9981,0.6855 0.4843,0.4571 0.7265,1.0254 0.7265,1.7051 0,0.3867 -0.069,0.7549 -0.208,1.1045 -0.1387,0.3496 -0.3584,0.7158 -0.6592,1.0986 -0.1992,0.2539 -0.5586,0.6192 -1.0781,1.0957 -0.5195,0.4766 -0.8486,0.793 -0.9873,0.9492 -0.1387,0.1563 -0.251,0.3086 -0.3369,0.4571 z"
       style="font-weight:bold;font-size:12px;-inkscape-font-specification:'Sans Bold';text-align:center;text-anchor:middle;fill:#ffffff"
       id="path4895" />
    <g
       style="font-style:normal;font-weight:normal;font-size:40px;line-height:125%;font-family:Sans;letter-spacing:0px;word-spacing:0px;fill:#ffffff;fill-opacity:1;stroke:none"
       id="text6911-6-9-6"
       transform="matrix(0.99889505,0,0,0.99889505,-957.31962,-164.32392)">
      <path
         d="m 5572.6279,1339.983 h -1.6465 v -6.205 c -0.6016,0.5625 -1.3106,0.9785 -2.127,1.248 v -1.4941 c 0.4297,-0.1407 0.8965,-0.4073 1.4004,-0.7998 0.5039,-0.3926 0.8496,-0.8506 1.0371,-1.3741 h 1.336 z"
         style="font-weight:bold;font-size:12px;-inkscape-font-specification:'Sans Bold';text-align:center;text-anchor:middle;fill:#ffffff"
         id="path4093-1" />
    </g>
    <path
       style="fill:#7dad4c;fill-opacity:1;fill-rule:evenodd;stroke-width:3.08878;stroke-dasharray:none"
       d="m 150.12134,190.71677 c -1.28797,-1.35536 -2.79366,-4.04677 -3.94135,-7.04516 -0.87026,-2.27359 -0.89466,-2.54651 -1.20042,-13.42726 -0.40427,-14.38664 -0.11282,-78.816934 0.36638,-80.992537 1.72738,-7.842569 7.89062,-14.729276 15.87857,-17.742478 l 2.22332,-0.838675 23.37337,-0.244253 c 29.16414,-0.304767 82.47648,-0.308614 116.7011,-0.0084 l 26.02567,0.228277 2.42216,0.870524 c 2.68157,0.963755 6.17685,2.973213 8.1403,4.679901 l 1.27943,1.112115 -14.95287,9.004071 c -14.52373,8.745659 -15.00289,9.004079 -16.69591,9.004348 -3.11905,4.96e-4 -8.72639,0.653138 -11.39795,1.326615 -7.56536,1.90717 -13.19642,6.749782 -15.78382,13.573812 -0.63047,1.6628 -1.32289,2.83939 -2.05951,3.49961 -0.90921,0.8149 -8.15965,5.353 -9.18132,5.74664 -0.15816,0.0609 -0.28683,-5.25622 -0.28683,-11.85245 V 95.648482 l -5.88479,0.03305 c -3.23663,0.01818 -6.24733,0.134334 -6.69045,0.258129 -0.55148,0.154069 -1.12707,0.854311 -1.82436,2.219459 -1.45084,2.84044 -4.2296,6.47244 -6.60282,8.63025 -2.77561,2.52367 -8.72839,6.44894 -12.24122,8.07187 l -2.89391,1.33699 v 7.33254 7.33254 l 0.91172,-0.21264 c 2.72349,-0.63517 12.64282,-6.07269 16.467,-9.02677 1.26159,-0.97454 2.33197,-1.73372 2.37862,-1.68706 0.0467,0.0467 -0.0158,2.29802 -0.13879,5.00304 l -0.22363,4.9182 -13.09572,7.89147 c -7.20264,4.3403 -13.23187,7.80872 -13.39828,7.7076 -0.18112,-0.11006 -0.21729,-10.14368 -0.0901,-24.99626 l 0.21246,-24.812406 h -8.61274 -8.61274 l -0.016,18.980506 c -0.018,21.40731 -0.40946,37.36608 -0.9799,39.94739 -0.47503,2.14957 -1.35562,2.95259 -6.96199,6.34869 l -4.04501,2.4503 -3.36449,-0.219 c -5.79883,-0.37744 -8.78224,-1.521 -11.51988,-4.41565 -0.91412,-0.96654 -1.95243,-2.41384 -2.30736,-3.21621 -0.94026,-2.12563 -1.29551,-7.61713 -1.30158,-20.12005 -0.003,-5.9419 -0.10415,-17.31777 -0.22503,-25.27971 l -0.21978,-14.476266 h -8.23442 -8.23442 l 0.002,24.948176 c 0.003,32.42891 0.36839,37.83438 2.89599,42.85118 2.08245,4.13328 6.16177,8.22784 10.90001,10.94073 l 1.73715,0.99461 -13.65612,8.20554 c -7.51087,4.51305 -13.73714,8.20555 -13.83616,8.20555 -0.099,0 -0.64081,-0.48487 -1.20397,-1.0775 z"
       id="path68"
       transform="matrix(0.10735601,0,0,0.10735601,4580.1205,1155.2367)" />
  </g>
</svg>
