<?xml version="1.0" encoding="UTF-8" standalone="no"?>
<!-- Created with Inkscape (http://www.inkscape.org/) -->

<svg
   width="92.304535mm"
   height="34.619522mm"
   viewBox="0 0 92.304535 34.619522"
   version="1.1"
   id="svg1"
   sodipodi:docname="u1punkt1.svg"
   inkscape:export-filename="u1punkt1.svg"
   inkscape:export-xdpi="96"
   inkscape:export-ydpi="96"
   inkscape:version="1.4 (86a8ad7, 2024-10-11)"
   xmlns:inkscape="http://www.inkscape.org/namespaces/inkscape"
   xmlns:sodipodi="http://sodipodi.sourceforge.net/DTD/sodipodi-0.dtd"
   xmlns="http://www.w3.org/2000/svg"
   xmlns:svg="http://www.w3.org/2000/svg">
  <sodipodi:namedview
     id="namedview1"
     pagecolor="#ffffff"
     bordercolor="#000000"
     borderopacity="0.25"
     inkscape:showpageshadow="2"
     inkscape:pageopacity="0.0"
     inkscape:pagecheckerboard="0"
     inkscape:deskcolor="#d1d1d1"
     inkscape:document-units="mm"
     inkscape:zoom="2.1328127"
     inkscape:cx="139.0183"
     inkscape:cy="68.688639"
     inkscape:window-width="1920"
     inkscape:window-height="1057"
     inkscape:window-x="-30080"
     inkscape:window-y="-31919"
     inkscape:window-maximized="0"
     inkscape:current-layer="layer1">
    <inkscape:page
       x="0"
       y="0"
       width="92.304535"
       height="34.619522"
       id="page2"
       margin="0"
       bleed="0" />
  </sodipodi:namedview>
  <defs
     id="defs1" />
  <g
     id="layer1"
     transform="translate(-86.646918,-135.01182)">
    <circle
       id="path4944-4-8-5-7-8"
       style="fill:#ffffff;fill-opacity:1;stroke:#000000;stroke-width:4.91884;stroke-linejoin:round;stroke-miterlimit:4;stroke-dasharray:none;stroke-opacity:1"
       cx="103.86285"
       cy="152.22775"
       r="14.756509" />
    <circle
       style="fill:#ff0000;fill-opacity:0.603846;stroke:none;stroke-width:0.949846"
       id="path4946-4-4-7-0-7"
       cx="104.01533"
       cy="-152.45694"
       transform="scale(1,-1)"
       r="7.3782544" />
    <rect
       rx="6.5179648"
       style="fill:#8c6dab;fill-opacity:1;stroke:none;stroke-width:2.45808"
       id="rect6915-5-2-2"
       width="54.077728"
       height="34.413101"
       x="124.85152"
       y="135.21825"
       ry="6.5179648" />
    <g
       style="font-style:normal;font-weight:normal;font-size:40px;line-height:125%;font-family:Sans;letter-spacing:0px;word-spacing:0px;fill:#ffffff;fill-opacity:1;stroke:none"
       id="text6911-9-5-1"
       transform="matrix(2.4580785,0,0,2.4580785,-12011.688,-1833.7751)">
      <path
         d="m 4941.3896,803.79358 h 1.7344 v 4.65234 c 0,0.73829 0.021,1.2168 0.065,1.43555 0.074,0.35156 0.251,0.63379 0.5302,0.84668 0.2793,0.21289 0.6612,0.31934 1.1456,0.31934 0.4921,0 0.8632,-0.10059 1.1132,-0.30176 0.25,-0.20117 0.4004,-0.44824 0.4512,-0.74121 0.051,-0.29297 0.076,-0.7793 0.076,-1.45899 v -4.75195 h 1.7344 v 4.51172 c 0,1.03125 -0.047,1.75977 -0.1407,2.18554 -0.094,0.42579 -0.2666,0.78516 -0.5185,1.07813 -0.252,0.29297 -0.5889,0.52637 -1.0108,0.7002 -0.4218,0.17382 -0.9726,0.26074 -1.6523,0.26074 -0.8203,0 -1.4424,-0.0947 -1.8662,-0.28418 -0.4238,-0.18946 -0.7588,-0.43555 -1.0049,-0.73828 -0.2461,-0.30274 -0.4082,-0.62012 -0.4863,-0.95215 -0.1133,-0.49219 -0.17,-1.21875 -0.17,-2.17969 z"
         style="font-weight:bold;font-size:12px;-inkscape-font-specification:'Sans Bold';text-align:center;text-anchor:middle;fill:#ffffff"
         id="path6985" />
      <path
         d="m 4955.2881,805.89709 -1.5938,0.17579 c -0.039,-0.32812 -0.1406,-0.57031 -0.3047,-0.72657 -0.164,-0.15624 -0.3769,-0.23436 -0.6386,-0.23437 -0.3477,10e-6 -0.6416,0.15626 -0.8819,0.46875 -0.2402,0.3125 -0.3916,0.96289 -0.4541,1.95117 0.4102,-0.48437 0.92,-0.72656 1.5293,-0.72656 0.6875,0 1.2764,0.26172 1.7666,0.78515 0.4903,0.52345 0.7354,1.19923 0.7354,2.02735 0,0.87891 -0.2578,1.58398 -0.7734,2.11523 -0.5157,0.53125 -1.1778,0.79688 -1.9864,0.79688 -0.8672,0 -1.5801,-0.33692 -2.1386,-1.01074 -0.5586,-0.67383 -0.8379,-1.77832 -0.8379,-3.31348 0,-1.57421 0.291,-2.70898 0.873,-3.4043 0.582,-0.6953 1.3379,-1.04296 2.2676,-1.04297 0.6523,10e-6 1.1924,0.18263 1.6201,0.54785 0.4277,0.36525 0.7002,0.89552 0.8174,1.59082 z m -3.7324,3.5918 c 0,0.53516 0.123,0.94825 0.3691,1.23926 0.2461,0.29102 0.5273,0.43652 0.8438,0.43652 0.3046,0 0.5585,-0.11914 0.7617,-0.35742 0.2031,-0.23828 0.3047,-0.6289 0.3047,-1.17187 0,-0.55859 -0.1094,-0.96777 -0.3282,-1.22754 -0.2187,-0.25976 -0.4922,-0.38965 -0.8203,-0.38965 -0.3164,0 -0.584,0.12403 -0.8027,0.37207 -0.2188,0.24805 -0.3281,0.61426 -0.3281,1.09863 z"
         style="font-weight:bold;font-size:12px;-inkscape-font-specification:'Sans Bold';text-align:center;text-anchor:middle;fill:#ffffff"
         id="path6987" />
    </g>
  </g>
</svg>
