<?xml version="1.0" encoding="UTF-8" standalone="no"?>
<!-- Created with Inkscape (http://www.inkscape.org/) -->

<svg
   width="92.304527mm"
   height="34.563046mm"
   viewBox="0 0 92.304527 34.563046"
   version="1.1"
   id="svg1"
   sodipodi:docname="u1punkt1.svg"
   inkscape:export-filename="u8punkt1.svg"
   inkscape:export-xdpi="96"
   inkscape:export-ydpi="96"
   inkscape:version="1.4 (86a8ad7, 2024-10-11)"
   xmlns:inkscape="http://www.inkscape.org/namespaces/inkscape"
   xmlns:sodipodi="http://sodipodi.sourceforge.net/DTD/sodipodi-0.dtd"
   xmlns="http://www.w3.org/2000/svg"
   xmlns:svg="http://www.w3.org/2000/svg">
  <sodipodi:namedview
     id="namedview1"
     pagecolor="#ffffff"
     bordercolor="#000000"
     borderopacity="0.25"
     inkscape:showpageshadow="2"
     inkscape:pageopacity="0.0"
     inkscape:pagecheckerboard="0"
     inkscape:deskcolor="#d1d1d1"
     inkscape:document-units="mm"
     inkscape:zoom="2.1328127"
     inkscape:cx="139.0183"
     inkscape:cy="68.688639"
     inkscape:window-width="1920"
     inkscape:window-height="1057"
     inkscape:window-x="-30080"
     inkscape:window-y="-31919"
     inkscape:window-maximized="0"
     inkscape:current-layer="layer1">
    <inkscape:page
       x="0"
       y="0"
       width="92.304527"
       height="34.563046"
       id="page2"
       margin="0"
       bleed="0" />
  </sodipodi:namedview>
  <defs
     id="defs1" />
  <g
     id="layer1"
     transform="translate(-86.646923,-135.01182)">
    <circle
       id="path4944-4-8-5-7-8"
       style="fill:#ffffff;fill-opacity:1;stroke:#000000;stroke-width:4.91884;stroke-linejoin:round;stroke-miterlimit:4;stroke-dasharray:none;stroke-opacity:1"
       cx="-161.73552"
       cy="152.22775"
       r="14.756509"
       transform="scale(-1,1)" />
    <circle
       style="fill:#ff0000;fill-opacity:0.603846;stroke:none;stroke-width:0.949846"
       id="path4946-4-4-7-0-7"
       cx="-161.58304"
       cy="-152.45694"
       transform="scale(-1)"
       r="7.3782544" />
    <rect
       ry="6.5215168"
       y="135.09235"
       x="-140.75412"
       height="34.431854"
       width="54.107197"
       id="rect6974-7-9-0-2"
       style="fill:#7dae4c;fill-opacity:1;stroke:none;stroke-width:2.45942"
       rx="6.5215168"
       transform="scale(-1,1)" />
    <g
       style="font-style:normal;font-weight:normal;font-size:40px;line-height:125%;font-family:Sans;letter-spacing:0px;word-spacing:0px;fill:#ffffff;fill-opacity:1;stroke:none"
       id="text6911-6-3-4-8"
       transform="matrix(-2.4593202,0,0,2.4593202,12117.997,-3175.2858)">
      <path
         d="m 4874.1318,1348.8942 h 1.7344 v 4.6523 c 0,0.7383 0.021,1.2168 0.064,1.4356 0.074,0.3515 0.2509,0.6337 0.5302,0.8466 0.2793,0.2129 0.6612,0.3194 1.1455,0.3194 0.4922,0 0.8633,-0.1006 1.1133,-0.3018 0.25,-0.2012 0.4004,-0.4482 0.4512,-0.7412 0.051,-0.293 0.076,-0.7793 0.076,-1.459 v -4.7519 h 1.7343 v 4.5117 c 0,1.0312 -0.047,1.7598 -0.1406,2.1855 -0.094,0.4258 -0.2666,0.7852 -0.5185,1.0782 -0.252,0.2929 -0.5889,0.5263 -1.0108,0.7002 -0.4219,0.1738 -0.9726,0.2607 -1.6523,0.2607 -0.8203,0 -1.4424,-0.095 -1.8662,-0.2842 -0.4239,-0.1894 -0.7588,-0.4355 -1.0049,-0.7383 -0.2461,-0.3027 -0.4082,-0.6201 -0.4863,-0.9521 -0.1133,-0.4922 -0.17,-1.2188 -0.17,-2.1797 z"
         style="font-weight:bold;font-size:12px;-inkscape-font-specification:'Sans Bold';text-align:center;text-anchor:middle;fill:#ffffff"
         id="path3686" />
      <path
         d="m 4886.665,1357.484 h -1.6464 v -6.2051 c -0.6016,0.5625 -1.3106,0.9786 -2.127,1.2481 v -1.4942 c 0.4297,-0.1406 0.8965,-0.4072 1.4004,-0.7998 0.5039,-0.3925 0.8496,-0.8505 1.0371,-1.374 h 1.3359 z"
         style="font-weight:bold;font-size:12px;-inkscape-font-specification:'Sans Bold';text-align:center;text-anchor:middle;fill:#ffffff"
         id="path3688" />
    </g>
    <rect
       rx="6.5254407"
       style="fill:#224f86;fill-opacity:1;stroke:none;stroke-width:2.4609"
       id="rect6915-8-0-4"
       width="54.139751"
       height="34.452572"
       x="86.658554"
       y="135.1223"
       ry="6.5254407" />
    <g
       style="font-style:normal;font-weight:normal;font-size:40px;line-height:125%;font-family:Sans;letter-spacing:0px;word-spacing:0px;fill:#ffffff;fill-opacity:1;stroke:none"
       id="text6911-1-8-8"
       transform="matrix(2.460898,0,0,2.460898,-13089.38,-3631.9697)">
      <path
         d="m 5358.1396,1533.5436 h 1.7344 v 4.6523 c 0,0.7383 0.021,1.2168 0.065,1.4356 0.074,0.3515 0.251,0.6338 0.5302,0.8466 0.2793,0.2129 0.6612,0.3194 1.1456,0.3194 0.4921,0 0.8632,-0.1006 1.1132,-0.3018 0.25,-0.2011 0.4004,-0.4482 0.4512,-0.7412 0.051,-0.2929 0.076,-0.7793 0.076,-1.459 v -4.7519 h 1.7344 v 4.5117 c 0,1.0313 -0.047,1.7598 -0.1407,2.1855 -0.094,0.4258 -0.2666,0.7852 -0.5185,1.0782 -0.252,0.2929 -0.5889,0.5263 -1.0108,0.7002 -0.4218,0.1738 -0.9726,0.2607 -1.6523,0.2607 -0.8203,0 -1.4424,-0.095 -1.8662,-0.2842 -0.4238,-0.1894 -0.7588,-0.4355 -1.0049,-0.7383 -0.2461,-0.3027 -0.4082,-0.6201 -0.4863,-0.9521 -0.1133,-0.4922 -0.17,-1.2187 -0.17,-2.1797 z"
         style="font-weight:bold;font-size:12px;-inkscape-font-specification:'Sans Bold';text-align:center;text-anchor:middle;fill:#ffffff"
         id="path8620" />
      <path
         d="m 5367.8721,1537.4987 c -0.4258,-0.1797 -0.7354,-0.4268 -0.9287,-0.7413 -0.1934,-0.3144 -0.2901,-0.6591 -0.2901,-1.0341 0,-0.6407 0.2237,-1.1699 0.6709,-1.5879 0.4473,-0.418 1.083,-0.627 1.9072,-0.627 0.8164,0 1.4502,0.209 1.9014,0.627 0.4512,0.418 0.6768,0.9472 0.6768,1.5879 0,0.3984 -0.1036,0.7529 -0.3106,1.0634 -0.207,0.3106 -0.498,0.5479 -0.873,0.712 0.4765,0.1914 0.8388,0.4707 1.0869,0.8378 0.248,0.3672 0.3721,0.7911 0.3721,1.2715 0,0.793 -0.253,1.4375 -0.7588,1.9336 -0.5059,0.4961 -1.1787,0.7442 -2.0186,0.7442 -0.7812,0 -1.4316,-0.2051 -1.9512,-0.6153 -0.6132,-0.4843 -0.9199,-1.1484 -0.9199,-1.9922 0,-0.4648 0.1153,-0.8916 0.3457,-1.2802 0.2305,-0.3887 0.5938,-0.6885 1.0899,-0.8994 z m 0.3398,-1.6582 c 0,0.3281 0.093,0.5839 0.2783,0.7675 0.1856,0.1836 0.4326,0.2754 0.7412,0.2754 0.3125,0 0.5625,-0.093 0.75,-0.2783 0.1875,-0.1855 0.2813,-0.4424 0.2813,-0.7705 0,-0.3086 -0.093,-0.5557 -0.2783,-0.7412 -0.1856,-0.1856 -0.4307,-0.2783 -0.7354,-0.2783 -0.3164,0 -0.5683,0.094 -0.7558,0.2812 -0.1875,0.1875 -0.2813,0.4356 -0.2813,0.7442 z m -0.1523,3.6796 c 0,0.4532 0.1162,0.8067 0.3486,1.0606 0.2324,0.2539 0.5225,0.3808 0.8701,0.3808 0.3399,0 0.6211,-0.122 0.8438,-0.3662 0.2226,-0.2441 0.334,-0.5966 0.334,-1.0576 0,-0.4023 -0.1133,-0.7256 -0.3399,-0.9697 -0.2266,-0.2441 -0.5137,-0.3662 -0.8613,-0.3662 -0.4024,0 -0.7022,0.1387 -0.8994,0.416 -0.1973,0.2773 -0.2959,0.5781 -0.2959,0.9023 z"
         style="font-weight:bold;font-size:12px;-inkscape-font-specification:'Sans Bold';text-align:center;text-anchor:middle;fill:#ffffff"
         id="path8622" />
    </g>
  </g>
</svg>
