<?xml version="1.0" encoding="UTF-8" standalone="no"?>
<!-- Created with Inkscape (http://www.inkscape.org/) -->

<svg
   width="92.304527mm"
   height="53.032963mm"
   viewBox="0 0 92.304527 53.032963"
   version="1.1"
   id="svg1"
   inkscape:export-filename="u9punkt1.png"
   inkscape:export-xdpi="96"
   inkscape:export-ydpi="96"
   sodipodi:docname="u2punkt1.svg"
   inkscape:version="1.4 (86a8ad7, 2024-10-11)"
   xmlns:inkscape="http://www.inkscape.org/namespaces/inkscape"
   xmlns:sodipodi="http://sodipodi.sourceforge.net/DTD/sodipodi-0.dtd"
   xmlns="http://www.w3.org/2000/svg"
   xmlns:svg="http://www.w3.org/2000/svg">
  <sodipodi:namedview
     id="namedview1"
     pagecolor="#ffffff"
     bordercolor="#000000"
     borderopacity="0.25"
     inkscape:showpageshadow="2"
     inkscape:pageopacity="0.0"
     inkscape:pagecheckerboard="0"
     inkscape:deskcolor="#d1d1d1"
     inkscape:document-units="mm"
     showguides="true"
     inkscape:zoom="1.0664064"
     inkscape:cx="-135.03295"
     inkscape:cy="52.98168"
     inkscape:window-width="1920"
     inkscape:window-height="1057"
     inkscape:window-x="0"
     inkscape:window-y="0"
     inkscape:window-maximized="0"
     inkscape:current-layer="layer1">
    <sodipodi:guide
       position="16.521511,52.223736"
       orientation="0,-1"
       id="guide1"
       inkscape:locked="false" />
    <sodipodi:guide
       position="15.533741,20.036216"
       orientation="1,0"
       id="guide2"
       inkscape:locked="false" />
    <sodipodi:guide
       position="17.498751,34.773816"
       orientation="0,-1"
       id="guide3"
       inkscape:locked="false" />
    <inkscape:page
       x="0"
       y="0"
       width="92.304527"
       height="53.032963"
       id="page2"
       margin="0"
       bleed="0" />
  </sodipodi:namedview>
  <defs
     id="defs1" />
  <g
     inkscape:label="Ebene 1"
     inkscape:groupmode="layer"
     id="layer1"
     transform="translate(-86.646909,-135.01182)">
    <circle
       id="path4944-4-8-5-7-8"
       style="fill:#ffffff;fill-opacity:1;stroke:#000000;stroke-width:4.91884;stroke-linejoin:round;stroke-miterlimit:4;stroke-dasharray:none;stroke-opacity:1"
       cx="103.86285"
       cy="152.22775"
       r="14.756509" />
    <circle
       style="fill:#ff0000;fill-opacity:0.603846;stroke:none;stroke-width:0.949846"
       id="path4946-4-4-7-0-7"
       cx="104.01533"
       cy="-152.45694"
       transform="scale(1,-1)"
       r="7.3782544" />
    <g
       style="font-style:normal;font-weight:normal;font-size:40px;line-height:125%;font-family:Sans;letter-spacing:0px;word-spacing:0px;fill:#ffffff;fill-opacity:1;stroke:none"
       id="text6976-8-5-8-5"
       transform="matrix(2.4594181,0,0,2.4594181,-11362.452,-3974.5983)">
      <path
         d="m 4674.8159,1681.411 h 1.7344 v 4.6524 c 0,0.7382 0.021,1.2168 0.064,1.4355 0.074,0.3516 0.251,0.6338 0.5303,0.8467 0.2793,0.2129 0.6611,0.3193 1.1455,0.3193 0.4922,0 0.8633,-0.1006 1.1133,-0.3017 0.25,-0.2012 0.4004,-0.4483 0.4512,-0.7413 0.051,-0.2929 0.076,-0.7792 0.076,-1.4589 v -4.752 h 1.7343 v 4.5117 c 0,1.0313 -0.047,1.7598 -0.1406,2.1856 -0.094,0.4258 -0.2666,0.7851 -0.5186,1.0781 -0.2519,0.293 -0.5888,0.5264 -1.0107,0.7002 -0.4219,0.1738 -0.9727,0.2607 -1.6523,0.2607 -0.8204,0 -1.4424,-0.095 -1.8662,-0.2841 -0.4239,-0.1895 -0.7588,-0.4356 -1.0049,-0.7383 -0.2461,-0.3028 -0.4082,-0.6201 -0.4864,-0.9522 -0.1132,-0.4922 -0.1699,-1.2187 -0.1699,-2.1797 z"
         style="font-weight:bold;font-size:12px;-inkscape-font-specification:'Sans Bold';text-align:center;text-anchor:middle;fill:#ffffff"
         id="path4898-5" />
      <path
         d="m 4683.0776,1687.7216 1.5938,-0.1934 c 0.051,0.4063 0.1875,0.7168 0.4101,0.9316 0.2227,0.2149 0.4922,0.3223 0.8086,0.3223 0.3399,0 0.626,-0.1289 0.8584,-0.3867 0.2325,-0.2578 0.3487,-0.6055 0.3487,-1.043 0,-0.414 -0.1114,-0.7422 -0.334,-0.9844 -0.2227,-0.2421 -0.4942,-0.3632 -0.8145,-0.3632 -0.2109,0 -0.4629,0.041 -0.7558,0.123 l 0.1816,-1.3418 c 0.4453,0.012 0.7852,-0.085 1.0195,-0.29 0.2344,-0.2051 0.3516,-0.4776 0.3516,-0.8174 0,-0.2891 -0.086,-0.5195 -0.2578,-0.6914 -0.1719,-0.1719 -0.4004,-0.2578 -0.6856,-0.2578 -0.2812,0 -0.5214,0.098 -0.7207,0.2929 -0.1992,0.1954 -0.3203,0.4805 -0.3632,0.8555 l -1.5176,-0.2578 c 0.1055,-0.5195 0.2646,-0.9346 0.4775,-1.2451 0.2129,-0.3106 0.5098,-0.5547 0.8906,-0.7324 0.3809,-0.1778 0.8077,-0.2666 1.2803,-0.2666 0.8086,0 1.457,0.2578 1.9453,0.7734 0.4024,0.4219 0.6035,0.8984 0.6035,1.4297 0,0.7539 -0.4121,1.3555 -1.2363,1.8047 0.4922,0.1054 0.8858,0.3418 1.1807,0.709 0.2949,0.3671 0.4424,0.8105 0.4424,1.33 0,0.7539 -0.2754,1.3965 -0.8262,1.9278 -0.5508,0.5312 -1.2363,0.7968 -2.0566,0.7968 -0.7774,0 -1.4219,-0.2236 -1.9336,-0.6709 -0.5118,-0.4472 -0.8086,-1.0322 -0.8907,-1.7548 z"
         style="font-weight:bold;font-size:12px;-inkscape-font-specification:'Sans Bold';text-align:center;text-anchor:middle;fill:#ffffff"
         id="path4900-1" />
    </g>
    <g
       style="font-style:normal;font-weight:normal;font-size:40px;line-height:125%;font-family:Sans;letter-spacing:0px;word-spacing:0px;fill:#ffffff;fill-opacity:1;stroke:none"
       id="text6911-6-2-9-1-9"
       transform="matrix(2.4645415,0,0,2.4645415,-11201.25,-2712.1171)">
      <path
         d="m 4599.5977,1165.5538 h 1.7343 v 4.6524 c 0,0.7383 0.021,1.2168 0.064,1.4355 0.074,0.3516 0.251,0.6338 0.5303,0.8467 0.2793,0.2129 0.6611,0.3193 1.1455,0.3193 0.4921,0 0.8632,-0.1005 1.1132,-0.3017 0.25,-0.2012 0.4004,-0.4483 0.4512,-0.7412 0.051,-0.293 0.076,-0.7793 0.076,-1.459 v -4.752 h 1.7344 v 4.5118 c 0,1.0312 -0.047,1.7597 -0.1407,2.1855 -0.094,0.4258 -0.2666,0.7852 -0.5185,1.0781 -0.252,0.293 -0.5889,0.5264 -1.0108,0.7002 -0.4218,0.1738 -0.9726,0.2608 -1.6523,0.2608 -0.8203,0 -1.4424,-0.095 -1.8662,-0.2842 -0.4238,-0.1895 -0.7588,-0.4356 -1.0049,-0.7383 -0.2461,-0.3027 -0.4082,-0.6201 -0.4863,-0.9521 -0.1133,-0.4922 -0.1699,-1.2188 -0.1699,-2.1797 z"
         style="font-weight:bold;font-size:12px;-inkscape-font-specification:'Sans Bold';text-align:center;text-anchor:middle;fill:#ffffff"
         id="path4893" />
      <path
         d="m 4613.4785,1172.6144 v 1.5293 h -5.7715 c 0.062,-0.5781 0.25,-1.126 0.5625,-1.6436 0.3125,-0.5176 0.9297,-1.2041 1.8516,-2.0595 0.7422,-0.6915 1.1973,-1.1602 1.3652,-1.4063 0.2266,-0.3398 0.3399,-0.6758 0.3399,-1.0078 0,-0.3672 -0.099,-0.6494 -0.2959,-0.8467 -0.1973,-0.1972 -0.4698,-0.2959 -0.8174,-0.2959 -0.3438,0 -0.6172,0.1035 -0.8203,0.3106 -0.2031,0.207 -0.3203,0.5507 -0.3516,1.0312 l -1.6406,-0.1641 c 0.098,-0.9062 0.4043,-1.5566 0.9199,-1.9511 0.5156,-0.3945 1.1602,-0.5918 1.9336,-0.5918 0.8477,0 1.5137,0.2285 1.9981,0.6855 0.4843,0.4571 0.7265,1.0254 0.7265,1.7051 0,0.3867 -0.069,0.7549 -0.208,1.1045 -0.1387,0.3496 -0.3584,0.7158 -0.6592,1.0986 -0.1992,0.2539 -0.5586,0.6192 -1.0781,1.0957 -0.5195,0.4766 -0.8486,0.793 -0.9873,0.9492 -0.1387,0.1563 -0.251,0.3086 -0.3369,0.4571 z"
         style="font-weight:bold;font-size:12px;-inkscape-font-specification:'Sans Bold';text-align:center;text-anchor:middle;fill:#ffffff"
         id="path4895" />
    </g>
    <rect
       rx="6.5165997"
       style="fill:#f3791d;fill-opacity:1;stroke:none;stroke-width:2.45756"
       id="rect6915-5-4-87-3-5-2"
       width="54.066402"
       height="34.405891"
       x="124.92016"
       y="153.63611"
       ry="6.5165997" />
    <g
       style="font-style:normal;font-weight:normal;font-size:40px;line-height:125%;font-family:Sans;letter-spacing:0px;word-spacing:0px;fill:#ffffff;fill-opacity:1;stroke:none"
       id="text6911-9-3-7-8-6-7"
       transform="matrix(2.4575637,0,0,2.4575637,-12633.164,-2120.5969)">
      <path
         d="m 5195.335,928.16565 h 1.7343 v 4.65234 c 0,0.73829 0.021,1.2168 0.064,1.43555 0.074,0.35156 0.251,0.63379 0.5303,0.84668 0.2793,0.21289 0.6611,0.31934 1.1455,0.31934 0.4922,0 0.8632,-0.10059 1.1133,-0.30176 0.2499,-0.20117 0.4003,-0.44824 0.4511,-0.74121 0.051,-0.29297 0.076,-0.7793 0.076,-1.45899 v -4.75195 h 1.7344 v 4.51172 c 0,1.03125 -0.047,1.75977 -0.1407,2.18555 -0.094,0.42578 -0.2666,0.78515 -0.5185,1.07812 -0.252,0.29297 -0.5889,0.52637 -1.0108,0.7002 -0.4218,0.17382 -0.9726,0.26074 -1.6523,0.26074 -0.8203,0 -1.4424,-0.0947 -1.8662,-0.28418 -0.4238,-0.18945 -0.7588,-0.43555 -1.0049,-0.73828 -0.2461,-0.30274 -0.4082,-0.62012 -0.4863,-0.95215 -0.1133,-0.49219 -0.1699,-1.21875 -0.1699,-2.17969 z"
         style="font-weight:bold;font-size:12px;-inkscape-font-specification:'Sans Bold';text-align:center;text-anchor:middle;fill:#ffffff"
         id="path8217" />
      <path
         d="m 5203.6904,934.76917 1.5938,-0.17579 c 0.039,0.32422 0.1406,0.56446 0.3047,0.72071 0.164,0.15625 0.3808,0.23437 0.6504,0.23437 0.3398,0 0.6289,-0.15625 0.8671,-0.46875 0.2383,-0.3125 0.3907,-0.96093 0.4571,-1.94531 -0.4141,0.48047 -0.9317,0.72071 -1.5528,0.7207 -0.6757,10e-6 -1.2587,-0.26074 -1.749,-0.78222 -0.4902,-0.52148 -0.7353,-1.20019 -0.7353,-2.03614 0,-0.87108 0.2588,-1.57323 0.7763,-2.10644 0.5176,-0.5332 1.1768,-0.7998 1.9776,-0.79981 0.8711,10e-6 1.5859,0.33693 2.1445,1.01075 0.5586,0.67383 0.8379,1.78223 0.8379,3.32519 0,1.57032 -0.291,2.70313 -0.8731,3.39844 -0.582,0.69531 -1.3398,1.04297 -2.2734,1.04297 -0.6719,0 -1.2148,-0.17871 -1.6289,-0.53614 -0.4141,-0.35742 -0.6797,-0.8916 -0.7969,-1.60253 z m 3.7266,-3.59766 c 0,-0.53125 -0.1221,-0.94335 -0.3662,-1.23633 -0.2442,-0.29296 -0.5264,-0.43945 -0.8467,-0.43945 -0.3047,0 -0.5576,0.12012 -0.7588,0.36035 -0.2012,0.24024 -0.3017,0.63379 -0.3017,1.18066 0,0.5547 0.1093,0.96192 0.3281,1.22168 0.2187,0.25977 0.4922,0.38966 0.8203,0.38965 0.3164,1e-5 0.583,-0.12499 0.7998,-0.375 0.2168,-0.24999 0.3252,-0.61718 0.3252,-1.10156 z"
         style="font-weight:bold;font-size:12px;-inkscape-font-specification:'Sans Bold';text-align:center;text-anchor:middle;fill:#ffffff"
         id="path8219" />
    </g>
  </g>
</svg>
